# xmcd
#
# Track frame offsets: 
#        300
#        20280
#        39042
#        90459
#        108608
#        160826
#        230165
#
# Disc length: 3518 seconds
#
# Revision: 0
# Processed by: cddbd v1.5.2PL0 Copyright (c) Steve Scherf et al.
# Submitted via: ExactAudioCopy v1.0b1
#
DISCID=4a0dba07
DTITLE=Albert Collins - Live At Montreux 1992
DYEAR=2008
DGENRE=Texas Blues
TTITLE0=Iceman
TTITLE1=Honey Hush
TTITLE2=Lights Are On (But Nobody's Home)
TTITLE3=If You Love Me Like You Say
TTITLE4=Too Many Dirty Dishes
TTITLE5=Put The Shoe On The Other Foot
TTITLE6=Frosty
EXTD=
EXTT0=
EXTT1=
EXTT2=
EXTT3=
EXTT4=
EXTT5=
EXTT6=
PLAYORDER=
